# xmcd
#
# Track frame offsets:
#	150
#	17537
#	32307
#	52417
#
# Disc length: 930 seconds
#
# Revision: 1
# Processed by: cddbd v1.5.1PL0 Copyright (c) Steve Scherf et al.
# Submitted via: CDex 1.50Beta5
#
DISCID=2803a004
DTITLE=CORN HEAD - Which Way
DYEAR=1900
DGENRE=Unclassifiable
TTITLE0=Which Way
TTITLE1=メスまっさかりfeat.Rica
TTITLE2=Which Way-Craze Remix-
TTITLE3=Which Way(Version)
EXTD=
EXTT0=
EXTT1=
EXTT2=
EXTT3=
PLAYORDER=
